<svg width="30" height="30" viewBox="0 0 30 30" fill="none" xmlns="http://www.w3.org/2000/svg">
<path d="M13.9331 0H18.8386V22.7062C16.3221 23.1844 14.4746 23.3754 12.4681 23.3754C6.47955 23.3752 3.35791 20.6681 3.35791 15.4758C3.35791 10.4747 6.6708 7.22578 11.7989 7.22578C12.5953 7.22578 13.2005 7.28953 13.9331 7.48055V0ZM13.9331 11.4293C13.3599 11.2383 12.882 11.1748 12.2768 11.1748C9.79244 11.1748 8.35877 12.7036 8.35877 15.3792C8.35877 17.9913 9.72869 19.4245 12.2452 19.4245C12.7863 19.4245 13.2324 19.3927 13.9331 19.2975V11.4293Z" fill="#00DF81"/>
<path d="M26.6418 7.57522V18.9469C26.6418 22.8649 26.3549 24.7441 25.495 26.3686C24.6986 27.9298 23.6475 28.9169 21.4816 30L16.9265 27.8341C19.0926 26.8146 20.1435 25.9233 20.8125 24.5529C21.5132 23.1515 21.7366 21.5271 21.7366 17.2587V7.57522H26.6418ZM21.7364 0.026001H26.6418V5.05897H21.7364V0.026001Z" fill="#00DF81"/>
</svg>
