<svg width="24" height="25" viewBox="0 0 24 25" fill="none" xmlns="http://www.w3.org/2000/svg">
<path d="M10.6524 24.9224C10.2956 24.8798 9.92138 24.8249 9.82106 24.8001C9.67344 24.7651 9.52495 24.7339 9.37575 24.7064C9.20535 24.6733 9.03629 24.6337 8.86894 24.5877C8.09175 24.3649 8.03606 24.3467 7.45013 24.1071C6.91106 23.8874 5.91787 23.374 5.57812 23.1404C5.48513 23.0759 5.39813 23.0239 5.38481 23.0239C5.37169 23.0239 5.15419 22.8709 4.90144 22.684C3.29456 21.4947 2.08819 20.0509 1.2165 18.2727C1.0665 17.9672 0.944062 17.6963 0.944062 17.6708C0.944062 17.6457 0.917063 17.5761 0.884063 17.5176C0.816 17.3959 0.719063 17.1338 0.640875 16.8629C0.607258 16.7478 0.568151 16.6343 0.523687 16.5229C0.487125 16.4367 0.457687 16.3317 0.457687 16.2893C0.457687 16.2467 0.421125 16.1084 0.3765 15.9809C0.331875 15.8543 0.295875 15.7049 0.295875 15.649C0.295875 15.5935 0.260812 15.4015 0.2175 15.2222C0.112125 14.7797 0 13.6336 0 12.9912C0 12.3496 0.112125 11.2034 0.2175 10.7611C0.260625 10.5816 0.295875 10.3861 0.295875 10.3261C0.295875 10.2659 0.323063 10.1479 0.355875 10.0636C0.389625 9.97956 0.43275 9.82862 0.452625 9.72831C0.47325 9.628 0.520125 9.45512 0.558187 9.343L0.668813 9.01937C0.75 8.77694 0.825375 8.57181 0.861375 8.49194C0.882 8.44731 0.962438 8.26506 1.04081 8.08694C1.16756 7.79912 1.43925 7.25631 1.59806 6.97225C1.656 6.86819 1.67794 6.83369 1.99144 6.34375C2.48813 5.566 3.33694 4.59831 4.12706 3.9085C4.4055 3.66531 5.33569 2.95919 5.3775 2.95919C5.38912 2.95919 5.47687 2.9065 5.57306 2.842C5.82562 2.67287 6.07331 2.52925 6.39619 2.36744C6.51209 2.31012 6.62686 2.25054 6.74044 2.18875C6.79388 2.158 6.89419 2.11187 7.40925 1.88125C7.52269 1.83062 7.64494 1.7845 7.99725 1.66131C8.07487 1.63431 8.23088 1.57712 8.34225 1.53531C8.45438 1.49369 8.58619 1.45919 8.63531 1.45919C8.68369 1.45919 8.811 1.42544 8.91806 1.38381C9.02494 1.342 9.219 1.29437 9.35006 1.27825C9.48056 1.26287 9.654 1.22631 9.73538 1.19762C9.816 1.16987 10.0372 1.13387 10.2268 1.11794C10.4739 1.09561 10.7203 1.06654 10.9657 1.03075C11.4698 0.956873 12.5655 0.956873 13.0643 1.03075C13.2998 1.06455 13.5362 1.09237 13.7732 1.11419C13.9519 1.129 14.1797 1.16631 14.28 1.19706C14.3803 1.22706 14.5539 1.26456 14.6653 1.27825C14.7767 1.29306 14.9642 1.33919 15.0819 1.38156C15.2001 1.42469 15.3339 1.45919 15.3801 1.45919C15.4262 1.45919 15.5214 1.48487 15.591 1.51712C15.6613 1.54862 15.81 1.60131 15.9221 1.63431C16.0335 1.66806 16.2246 1.73462 16.3478 1.78375C16.47 1.83269 16.6341 1.89719 16.7124 1.92644C16.8568 1.98081 17.9237 2.51462 18.0688 2.60556C19.2465 3.34 19.8523 3.81981 20.6668 4.66131C21.6489 5.67644 22.3009 6.64319 22.9644 8.06631C23.0113 8.16681 23.0829 8.3155 23.124 8.39594C23.1643 8.47731 23.1981 8.57256 23.1981 8.60781C23.1981 8.64344 23.2318 8.75031 23.2734 8.84575C23.3863 9.10506 23.4829 9.40019 23.5284 9.62575C23.5509 9.73637 23.5928 9.87325 23.6213 9.92969C23.6499 9.98594 23.6835 10.129 23.6968 10.2462C23.7099 10.3632 23.7487 10.5552 23.7817 10.6716C23.973 11.3337 24.0681 13.2842 23.9524 14.1469C23.9181 14.4032 23.8793 14.7132 23.8661 14.8354C23.844 15.0449 23.7334 15.5862 23.6389 15.9501L23.5414 16.3354C23.3576 17.0774 22.9035 18.1343 22.3491 19.1121C22.1293 19.5002 21.3926 20.5499 21.2535 20.6729C21.2409 20.6837 21.1787 20.7572 21.1157 20.8347C21.0527 20.9131 20.8506 21.1321 20.6676 21.3211C19.8611 22.1537 19.2107 22.6686 18.0688 23.3777C17.9334 23.4619 16.785 24.0229 16.5703 24.1101C16.4589 24.1547 16.2729 24.2301 16.1572 24.277C16.0423 24.3233 15.9141 24.3621 15.8738 24.3629C15.8334 24.3634 15.7273 24.3994 15.6379 24.4426C15.5486 24.4857 15.435 24.5217 15.3846 24.5224C15.3347 24.5232 15.189 24.5584 15.0607 24.6008C14.9327 24.6439 14.7546 24.6902 14.6651 24.7039C14.5759 24.718 14.3848 24.7561 14.2397 24.7883C14.0948 24.8206 13.6566 24.8836 13.2671 24.9282C12.3984 25.0295 11.5207 25.0276 10.6524 24.9224ZM11.5343 22.5786C11.5905 22.5347 11.6484 22.4474 11.6638 22.3861C11.6976 22.2505 17.1452 11.3292 17.2477 11.1923C17.3342 11.0766 17.3423 10.8914 17.2631 10.8261C17.2215 10.7911 16.6999 10.78 15.3075 10.7822C14.2631 10.7845 13.3851 10.7852 13.3564 10.7845C13.314 10.783 13.3052 10.0851 13.3095 7.096C13.3125 5.06781 13.3029 3.38987 13.2883 3.36662C13.2737 3.343 13.2165 3.32406 13.1608 3.32406C13.0824 3.32406 13.0459 3.35781 12.9977 3.47556C12.9067 3.69456 12.6555 4.19181 11.4324 6.5665C11.1784 7.05931 10.9249 7.55243 10.6721 8.04587C10.4554 8.47 10.1134 9.13581 9.91331 9.52525C9.37481 10.5721 8.83743 11.6195 8.30119 12.6676C7.37625 14.4743 7.26431 14.6897 7.22456 14.7374C7.14769 14.8304 7.10588 15.0449 7.14919 15.1255C7.18856 15.1994 7.26713 15.2024 9.21975 15.1994C10.3359 15.1981 11.2566 15.2039 11.2661 15.2125C11.2918 15.2389 11.2822 22.2081 11.2558 22.3742C11.2384 22.4834 11.25 22.5411 11.2999 22.591C11.3861 22.6774 11.4097 22.6767 11.5343 22.5786Z" fill="#00DF81"/>
</svg>
