<svg width="24" height="24" viewBox="0 0 24 24" fill="none" xmlns="http://www.w3.org/2000/svg">
<path d="M17.5891 17.271C17.7363 16.0461 17.6923 15.8662 18.6046 16.0648L18.8362 16.0851C19.5378 16.1169 20.4556 15.9722 20.9949 15.7217C22.1557 15.183 22.8438 14.2839 21.6995 14.52C19.0888 15.0587 18.9093 14.1746 18.9093 14.1746C21.6661 10.0843 22.8185 4.89187 21.8236 3.62081C19.1105 0.15412 14.4142 1.79343 14.3356 1.83581L14.3105 1.8405C13.7947 1.73343 13.2174 1.6695 12.5688 1.659C11.3874 1.6395 10.491 1.96875 9.81089 2.48437C9.81089 2.48437 1.43283 -0.967317 1.82264 6.82518C1.90552 8.48287 4.19864 19.3686 6.93389 16.0806C7.93364 14.8783 8.89964 13.8617 8.89964 13.8617C9.37927 14.1802 9.95377 14.343 10.556 14.2845L10.6027 14.2447C10.5881 14.394 10.5945 14.5401 10.6213 14.7129C9.91683 15.5002 10.1238 15.6384 8.71514 15.9283C7.28977 16.2219 8.12714 16.7449 8.6737 16.8816C9.33652 17.0473 10.8697 17.2821 11.9058 15.8319L11.8646 15.9973C12.141 16.2186 12.1224 17.5867 12.1614 18.5642C12.2006 19.5418 12.266 20.454 12.4653 20.9919C12.6646 21.5297 12.8998 22.9149 14.7511 22.5182C16.2984 22.1874 17.4813 21.7102 17.5891 17.271Z" fill="#032221"/>
<path d="M14.1484 23.4855C13.3296 23.4855 12.7963 23.1688 12.4725 22.863C11.9837 22.4017 11.7898 21.8076 11.674 21.4526L11.6239 21.3045C11.3907 20.6749 11.3115 19.7683 11.2647 18.6009C11.2575 18.4256 11.2527 18.2451 11.2472 18.0536C11.2433 17.9136 11.2384 17.7379 11.2313 17.5541C10.9363 17.6948 10.6232 17.7937 10.3009 17.8481C9.7236 17.9467 9.10297 17.9149 8.45591 17.7531C7.99935 17.6389 7.52497 17.4022 7.2546 17.0368C6.46653 17.727 5.71485 17.6334 5.30535 17.4967C4.58291 17.2558 3.93641 16.5787 3.32872 15.4273C2.89578 14.607 2.4771 13.5382 2.0841 12.2505C1.39972 10.008 0.964908 7.64606 0.926283 6.87056C0.804783 4.44337 1.45822 2.7075 2.86803 1.71168C5.09197 0.140808 8.46153 1.06462 9.69003 1.48406C10.5154 0.98662 11.4865 0.744558 12.5837 0.761996C13.173 0.771558 13.7342 0.823308 14.2555 0.916308C14.7992 0.745308 15.8732 0.49987 17.1027 0.515245C19.3678 0.542245 21.2449 1.425 22.5306 3.06806C23.4482 4.24031 22.9945 6.702 22.6425 8.06512C22.1472 9.9825 21.2792 12.0217 20.2131 13.797C20.5026 13.7991 20.922 13.7644 21.5183 13.6412C22.6947 13.3984 23.0387 14.0291 23.1321 14.3115C23.5062 15.4444 21.8802 16.3005 21.373 16.536C20.7231 16.8377 19.6635 17.0214 18.7958 16.9817L18.7579 16.9792L18.5299 16.9592L18.5074 17.1493L18.4857 17.3351C18.4273 19.5849 18.106 21.0097 17.4447 21.9512C16.7515 22.9382 15.7881 23.2147 14.9395 23.3966C14.65 23.4585 14.3869 23.4855 14.1484 23.4855V23.4855ZM12.4253 15.2972C12.9538 15.7202 13.0002 16.5161 13.0416 18.0036C13.0468 18.1892 13.0517 18.3649 13.0583 18.5289C13.0782 19.0258 13.1248 20.1892 13.3071 20.6809C13.3328 20.7504 13.3558 20.8209 13.3802 20.8957C13.5833 21.5175 13.6851 21.8293 14.5632 21.6416C15.3002 21.4836 15.6792 21.3418 15.9758 20.9196C16.4068 20.3057 16.648 19.0708 16.6922 17.2492L17.589 17.271L16.6984 17.1641L16.7247 16.9417C16.81 16.2086 16.8715 15.6791 17.3614 15.3289C17.7546 15.048 18.2025 15.0752 18.5593 15.1395C18.1673 14.8432 18.0589 14.4958 18.03 14.3533L17.9552 13.9849L18.1654 13.6731C19.3761 11.8768 20.3743 9.66918 20.9046 7.61606C21.4495 5.5065 21.2833 4.38618 21.1172 4.17431C18.918 1.36425 15.1045 2.5245 14.7062 2.65612L14.6389 2.6925L14.3014 2.75531L14.1285 2.7195C13.6519 2.6205 13.1224 2.56575 12.5548 2.55656C11.6631 2.54156 10.9437 2.75231 10.3538 3.19987L9.94447 3.51018L9.46953 3.31462C8.45478 2.89968 5.47428 2.0655 3.90153 3.17943C3.02853 3.79781 2.63085 5.00943 2.71935 6.78075C2.7486 7.36556 3.14591 9.57937 3.80141 11.7264C4.70722 14.6936 5.53035 15.6793 5.87403 15.7939C5.93403 15.8141 6.08966 15.6932 6.24453 15.5072C6.89029 14.7331 7.55896 13.9784 8.24966 13.2441L8.76903 12.6975L9.39697 13.1147C9.6501 13.2829 9.92928 13.3783 10.216 13.3963L11.7135 12.1191L11.4966 14.3331C11.4917 14.3827 11.4893 14.4504 11.5088 14.5761L11.574 14.9957L11.2909 15.3122L11.2583 15.3489L12.081 15.7286L12.4253 15.2972V15.2972Z" fill="#032221"/>
<path d="M21.6996 14.52C19.0886 15.0587 18.9092 14.1746 18.9092 14.1746C21.666 10.0841 22.8184 4.89149 21.8239 3.6208C19.1108 0.154301 14.4141 1.79361 14.3357 1.83618L14.3104 1.84068C13.7946 1.73361 13.2173 1.66986 12.5683 1.65936C11.3869 1.64005 10.4908 1.96911 9.81077 2.48474C9.81077 2.48474 1.43251 -0.966761 1.82214 6.82555C1.90502 8.48343 4.19814 19.3691 6.93339 16.0811C7.93314 14.8789 8.89895 13.8622 8.89895 13.8622C9.37876 14.1808 9.95308 14.3436 10.5551 14.2851L10.602 14.2453C10.5874 14.3946 10.5941 14.5406 10.6208 14.7135C9.91614 15.5008 10.1231 15.639 8.71445 15.9289C7.28908 16.2225 8.12645 16.7454 8.6732 16.8821C9.33583 17.0479 10.8692 17.2826 11.9051 15.8325L11.8637 15.9979C12.1399 16.2191 12.3338 17.4364 12.3013 18.5398C12.2687 19.6432 12.247 20.4009 12.4646 20.9927C12.6821 21.5844 12.8989 22.9157 14.7506 22.5189C16.2979 22.1874 17.0996 21.3281 17.2114 19.8949C17.2905 18.8758 17.4696 19.0266 17.481 18.1155L17.6248 17.6842C17.7906 16.3029 17.6511 15.8574 18.6045 16.0646L18.8361 16.0849C19.5377 16.1167 20.4559 15.972 20.995 15.7215C22.1556 15.1832 22.8439 14.2839 21.6996 14.52V14.52Z" fill="#00DF81"/>
<path d="M14.242 22.9326C12.6985 22.9326 12.2095 21.7102 12.0094 21.2104C11.7166 20.4778 11.6534 17.6349 11.7186 15.3036C11.7196 15.2642 11.7283 15.2255 11.7443 15.1896C11.7603 15.1537 11.7833 15.1212 11.8119 15.0942C11.8405 15.0672 11.8741 15.0461 11.9109 15.0322C11.9476 15.0182 11.9868 15.0117 12.0261 15.0129C12.0654 15.014 12.1041 15.0228 12.1399 15.0388C12.1758 15.0548 12.2081 15.0778 12.2351 15.1063C12.2621 15.1349 12.2832 15.1685 12.2972 15.2052C12.3112 15.2419 12.3179 15.281 12.3167 15.3202C12.2416 18.0092 12.3482 20.4459 12.565 20.9882C12.9032 21.8336 13.4162 22.5731 14.8666 22.2624C16.2434 21.9671 16.759 21.4451 16.9887 20.1137C17.1649 19.092 17.5135 16.1854 17.5564 15.6118C17.5593 15.5726 17.5699 15.5344 17.5876 15.4993C17.6052 15.4642 17.6297 15.4329 17.6595 15.4073C17.6892 15.3816 17.7238 15.3621 17.7611 15.3498C17.7985 15.3376 17.8379 15.3328 17.8771 15.3358C17.9561 15.3418 18.0296 15.3789 18.0814 15.439C18.1331 15.4991 18.1589 15.5773 18.1531 15.6564C18.1082 16.2536 17.7614 19.1546 17.5784 20.2155C17.3072 21.7881 16.6062 22.5013 14.992 22.8474C14.7177 22.9061 14.4685 22.9324 14.242 22.9326V22.9326ZM5.87274 16.9624C5.73783 16.9619 5.60387 16.9397 5.47599 16.8967C4.47343 16.5622 3.51849 14.9295 2.63762 12.0433C1.96712 9.84636 1.54224 7.55324 1.50493 6.80793C1.39449 4.59843 1.96337 3.03524 3.19618 2.16205C5.63499 0.43405 9.73768 2.07955 9.91112 2.15043C9.98459 2.18044 10.0431 2.2384 10.0739 2.31158C10.1046 2.38475 10.105 2.46714 10.075 2.54061C10.045 2.61409 9.98701 2.67263 9.91384 2.70336C9.84066 2.73409 9.75828 2.7345 9.6848 2.70449C9.64524 2.68836 5.71112 1.11224 3.5408 2.65105C2.48668 3.39843 2.00274 4.78705 2.1023 6.77811C2.13362 7.40605 2.53055 9.64405 3.20968 11.8686C3.99605 14.4452 4.89099 16.071 5.66518 16.3292C5.78668 16.3697 6.15643 16.4929 6.68499 15.8572C7.30139 15.117 7.94089 14.3962 8.60255 13.6961C8.65792 13.6409 8.7327 13.6095 8.81089 13.6088C8.88909 13.608 8.96448 13.6378 9.02094 13.6919C9.07739 13.746 9.11043 13.8201 9.11297 13.8982C9.11552 13.9764 9.08737 14.0525 9.03455 14.1101C9.02555 14.1195 8.12574 15.0602 7.14512 16.2399C6.68068 16.7985 6.23555 16.9624 5.87274 16.9624V16.9624ZM18.8907 14.4414C18.8364 14.4414 18.7832 14.4265 18.7368 14.3986C18.6903 14.3706 18.6523 14.3305 18.6268 14.2826C18.6014 14.2347 18.5894 14.1808 18.5922 14.1267C18.595 14.0725 18.6125 14.0201 18.6428 13.9751C21.4296 9.8398 22.4078 4.84311 21.5701 3.77249C20.5156 2.42511 19.0266 1.72143 17.1443 1.68074C15.7506 1.65074 14.6429 2.00661 14.4617 2.06868L14.4162 2.08724C14.2341 2.14443 14.0944 2.04468 14.0417 1.92805C14.0117 1.86123 14.0071 1.78573 14.0289 1.71578C14.0507 1.64584 14.0974 1.58629 14.1601 1.54836C14.1687 1.5433 14.1961 1.53168 14.2405 1.51536L14.2366 1.51649L14.2405 1.51518C14.5482 1.40249 15.6728 1.06518 17.0657 1.08111C19.1485 1.10324 20.869 1.9063 22.0409 3.40386C22.5953 4.11243 22.5966 5.7448 22.0444 7.88268C21.4816 10.0624 20.4224 12.4048 19.1387 14.3096C19.0814 14.3953 18.9869 14.4414 18.8907 14.4414ZM19.0332 16.3558C18.5573 16.3558 18.1307 16.2887 17.8754 16.1357C17.6129 15.9784 17.5628 15.7646 17.5562 15.6512C17.4846 14.3931 18.1787 14.1741 18.5327 14.0741C18.4834 13.9995 18.4133 13.9117 18.3407 13.8212C18.1343 13.5632 17.8516 13.2099 17.6337 12.6816C17.5996 12.5991 17.4927 12.4072 17.3689 12.1851C16.6979 10.9817 15.3016 8.47761 16.1986 7.1953C16.6137 6.60186 17.4404 6.36824 18.6584 6.49855C18.3001 5.40693 16.5938 1.99218 12.5451 1.9258C11.3275 1.90555 10.3289 2.27999 9.57849 3.03768C7.89849 4.73436 7.95924 7.8043 7.96018 7.83505C7.96121 7.87432 7.9545 7.91342 7.94043 7.9501C7.92635 7.98678 7.90519 8.02032 7.87815 8.04883C7.85111 8.07733 7.81873 8.10022 7.78284 8.11621C7.74695 8.13219 7.70826 8.14095 7.66899 8.14199C7.62972 8.14302 7.59062 8.13631 7.55395 8.12224C7.51727 8.10816 7.48372 8.087 7.45522 8.05996C7.42671 8.03292 7.40382 8.00054 7.38783 7.96465C7.37185 7.92876 7.36309 7.89007 7.36205 7.8508C7.3583 7.71449 7.29568 4.49286 9.15343 2.61655C10.0229 1.73849 11.1674 1.30499 12.5551 1.32768C15.1452 1.37024 16.8124 2.68705 17.7548 3.78411C18.7821 4.9798 19.2857 6.29868 19.3272 6.73893C19.3581 7.0663 19.1232 7.13174 19.0757 7.14149L18.9677 7.14393C17.7724 6.95249 17.0056 7.08543 16.6885 7.53843C16.0062 8.51361 17.3271 10.8823 17.8911 11.8939C18.0351 12.1519 18.139 12.3384 18.1866 12.4536C18.3719 12.9028 18.6136 13.2047 18.8076 13.4473C18.9784 13.6607 19.1264 13.8457 19.1792 14.0629C19.2038 14.106 19.5524 14.6216 21.6207 14.1947C22.1391 14.0878 22.45 14.1791 22.5451 14.4666C22.732 15.0319 21.6831 15.6913 21.1024 15.9609C20.5821 16.2028 19.7517 16.3558 19.0332 16.3558V16.3558ZM18.1527 15.6019C18.2183 15.6681 18.5466 15.7822 19.2265 15.753C19.831 15.7271 20.4685 15.5957 20.851 15.4181C21.3402 15.1909 21.6668 14.9368 21.8359 14.7634L21.7422 14.7806C20.4197 15.0536 19.4843 15.0172 18.9619 14.6724C18.9268 14.6492 18.893 14.6241 18.8607 14.5972C18.8041 14.6196 18.7517 14.6342 18.7144 14.6447C18.4182 14.7277 18.1118 14.8138 18.1527 15.6019ZM9.6098 17.2734C9.2813 17.2734 8.93555 17.2286 8.58249 17.1403C8.21668 17.0488 7.59999 16.7734 7.60937 16.3209C7.62005 15.8134 8.35824 15.6611 8.63612 15.6039C9.63999 15.3971 9.70543 15.3142 10.0191 14.9158C10.1106 14.7997 10.2244 14.6552 10.3797 14.4819C10.6101 14.2239 10.8619 14.0932 11.1282 14.0932C11.3136 14.0932 11.4657 14.1561 11.5662 14.1979C11.8864 14.3306 12.1536 14.6516 12.2635 15.0354C12.3627 15.3817 12.3152 15.7151 12.1304 15.9741C11.5234 16.824 10.6517 17.2734 9.6098 17.2734ZM8.25568 16.3466C8.34587 16.4164 8.52662 16.5096 8.7278 16.5598C9.03362 16.6363 9.33024 16.6751 9.60999 16.6751C10.4624 16.6751 11.1467 16.3222 11.6438 15.6262C11.7475 15.4811 11.7164 15.2968 11.6886 15.1999C11.6305 14.9968 11.4861 14.8121 11.3374 14.7504C11.2568 14.7171 11.1899 14.6916 11.1284 14.6916C11.0954 14.6916 10.9949 14.6916 10.8257 14.8807C10.709 15.012 10.5968 15.1472 10.4894 15.2861C10.0986 15.7822 9.91955 15.9506 8.75705 16.1901C8.47337 16.2482 8.32787 16.3074 8.25568 16.3466ZM10.5561 14.9666C10.4847 14.9665 10.4157 14.9408 10.3615 14.8943C10.3074 14.8477 10.2716 14.7833 10.2608 14.7127C10.2534 14.6631 10.2484 14.6131 10.2458 14.5629C9.4838 14.5487 8.74862 14.2217 8.19043 13.6393C7.48468 12.903 7.16349 11.8828 7.30937 10.8405C7.4678 9.70855 7.40855 8.70936 7.37668 8.17255C7.36787 8.0233 7.36149 7.91549 7.36187 7.84086C7.36243 7.74618 7.3643 7.49511 8.20355 7.06968C8.50205 6.91836 9.10055 6.65436 9.75437 6.58668C10.8376 6.47474 11.5516 6.95718 11.7653 7.9453C12.3422 10.6131 11.8111 11.793 11.4231 12.6547C11.3509 12.8152 11.2827 12.9667 11.2281 13.1136L11.1799 13.2429C10.975 13.7925 10.7978 14.2672 10.8522 14.6218C10.8581 14.6606 10.8564 14.7003 10.8471 14.7384C10.8377 14.7766 10.8209 14.8125 10.7977 14.8442C10.7744 14.8759 10.7452 14.9027 10.7116 14.923C10.678 14.9434 10.6407 14.9569 10.6019 14.9629L10.5561 14.9666ZM7.96205 7.92374L7.97368 8.1373C8.00668 8.69493 8.06818 9.73255 7.90168 10.9236C7.78149 11.7832 8.04399 12.6223 8.62224 13.2253C9.07918 13.7019 9.68049 13.965 10.2985 13.965H10.3112C10.3804 13.6734 10.4954 13.3656 10.6191 13.0339L10.6669 12.9052C10.7286 12.7395 10.8008 12.579 10.8773 12.4091C11.2506 11.5796 11.7154 10.5471 11.1801 8.07186C11.0742 7.58155 10.8171 7.29786 10.3947 7.2043C9.52693 7.01268 8.23374 7.66536 7.96205 7.92374V7.92374ZM9.76768 7.7968C9.75268 7.90255 9.96137 8.18493 10.2336 8.22261C10.5053 8.26068 10.7378 8.0398 10.7526 7.93405C10.7674 7.8283 10.5589 7.71168 10.2867 7.6738C10.0146 7.63593 9.78212 7.69105 9.76768 7.7968ZM10.2961 8.32668L10.2197 8.32143C10.051 8.29799 9.88037 8.19168 9.76355 8.0368C9.72249 7.98243 9.65555 7.87705 9.66887 7.78293C9.6878 7.64493 9.85618 7.56224 10.1189 7.56224C10.1776 7.56224 10.2387 7.56655 10.3002 7.57518C10.4438 7.59505 10.5771 7.63649 10.6756 7.69143C10.8462 7.78668 10.8587 7.89299 10.8511 7.94793C10.8301 8.10036 10.5876 8.32668 10.2961 8.32668V8.32668ZM9.86687 7.81443C9.8753 7.87968 10.0369 8.09493 10.2473 8.12399L10.2962 8.12736C10.4905 8.12736 10.6356 7.97455 10.6527 7.92449C10.6347 7.89036 10.5098 7.80561 10.273 7.77261C10.222 7.7653 10.1706 7.7616 10.1191 7.76155C9.9668 7.76155 9.88599 7.79586 9.86687 7.81443V7.81443ZM18.0428 7.58099C18.0576 7.68674 17.8491 7.96911 17.5771 8.00699C17.3052 8.04486 17.0725 7.82418 17.0575 7.71843C17.0432 7.61268 17.2517 7.49586 17.5236 7.45818C17.7955 7.42011 18.0278 7.47543 18.0428 7.58099V7.58099ZM17.5142 8.06099C17.2525 8.06099 17.0266 7.85736 17.008 7.72518C16.9864 7.56655 17.2476 7.44599 17.5165 7.40868C17.5757 7.40043 17.6344 7.3963 17.6909 7.3963C17.923 7.3963 18.0767 7.46436 18.0921 7.57424C18.1021 7.6453 18.0475 7.75499 17.9536 7.85399C17.8915 7.91905 17.7612 8.03174 17.5836 8.0563L17.5142 8.06099V8.06099ZM17.6911 7.49605C17.6393 7.49605 17.5853 7.49999 17.5306 7.50749C17.2604 7.54518 17.0991 7.65355 17.107 7.71168C17.116 7.77561 17.2885 7.96143 17.5144 7.96143L17.5701 7.95749C17.7177 7.93705 17.8285 7.84068 17.8814 7.78518C17.9644 7.69799 17.9974 7.61586 17.9935 7.58793C17.9882 7.5508 17.8885 7.49605 17.6911 7.49605ZM18.4345 13.6541C18.3803 13.6541 18.3271 13.6394 18.2806 13.6116C18.2341 13.5837 18.1961 13.5437 18.1706 13.4959C18.1451 13.448 18.1331 13.3942 18.1358 13.34C18.1386 13.2859 18.156 13.2335 18.1862 13.1886C18.8234 12.237 18.7067 11.2667 18.5941 10.3282C18.5459 9.92849 18.4964 9.51505 18.5091 9.1183C18.5222 8.71011 18.5742 8.37336 18.6242 8.04768C18.6837 7.6618 18.7399 7.2973 18.7167 6.86455C18.7146 6.82533 18.7202 6.78607 18.7332 6.74902C18.7463 6.71197 18.7665 6.67786 18.7928 6.64862C18.819 6.61939 18.8507 6.59561 18.8862 6.57865C18.9216 6.56168 18.96 6.55186 18.9992 6.54974C19.0385 6.54762 19.0777 6.55325 19.1148 6.5663C19.1518 6.57936 19.1859 6.59958 19.2152 6.62582C19.2444 6.65206 19.2682 6.6838 19.2851 6.71923C19.3021 6.75465 19.3119 6.79308 19.3141 6.8323C19.3407 7.32693 19.2771 7.73943 19.2156 8.13861C19.1682 8.44668 19.1191 8.76524 19.1072 9.13743C19.0958 9.4888 19.1406 9.86193 19.1881 10.2568C19.3081 11.2547 19.444 12.3857 18.6835 13.5214C18.6561 13.5623 18.6191 13.5958 18.5756 13.6189C18.5322 13.6421 18.4837 13.6542 18.4345 13.6541V13.6541Z" fill="black"/>
</svg>
