<svg width="24" height="24" viewBox="0 0 24 24" fill="none" xmlns="http://www.w3.org/2000/svg">
<path d="M11.8858 2.29647C11.0942 2.30022 10.3386 2.36754 9.67335 2.48529C7.71398 2.83141 7.35848 3.55591 7.35848 4.89223V6.65679H11.9884V7.24498H5.62073C4.27523 7.24498 3.09698 8.05366 2.72835 9.59266C2.3031 11.3561 2.28435 12.4567 2.72835 14.2982C3.05741 15.669 3.84341 16.6455 5.1891 16.6455H6.78116V14.5301C6.78116 13.0018 8.10323 11.6539 9.67354 11.6539H14.2982C15.5856 11.6539 16.6131 10.5937 16.6131 9.3011V4.89241C16.6131 3.63748 15.5545 2.69491 14.2982 2.48547C13.5025 2.3531 12.6773 2.29291 11.8858 2.29647ZM9.38198 3.71566C9.8601 3.71566 10.2509 4.1126 10.2509 4.60085C10.2509 5.08704 9.86029 5.48023 9.38198 5.48023C8.90198 5.48023 8.51329 5.08704 8.51329 4.60085C8.5131 4.1126 8.90198 3.71566 9.38198 3.71566Z" fill="#00DF81"/>
<path d="M17.1903 7.245V9.30112C17.1903 10.8949 15.8388 12.2364 14.298 12.2364H9.67327C8.40652 12.2364 7.3584 13.3208 7.3584 14.5894V18.9984C7.3584 20.253 8.44927 20.9912 9.67327 21.351C11.1388 21.7817 12.5443 21.8597 14.298 21.351C15.4635 21.0133 16.6128 20.3342 16.6128 18.9984V17.2337H11.9883V16.6453H18.9281C20.2736 16.6453 20.7753 15.7069 21.2433 14.298C21.7267 12.8477 21.7059 11.4529 21.2433 9.5925C20.9107 8.25281 20.2756 7.24481 18.9281 7.24481H17.1903V7.245ZM14.5891 18.4101C15.0693 18.4101 15.458 18.8033 15.458 19.2898C15.458 19.7777 15.0691 20.1746 14.5891 20.1746C14.111 20.1746 13.7205 19.7777 13.7205 19.2898C13.7205 18.8033 14.111 18.4101 14.5891 18.4101Z" fill="#00DF81"/>
<path opacity="0.444" d="M18.2455 22.4244C18.2455 23.0888 15.4675 23.6274 12.0409 23.6274C8.61418 23.6274 5.83618 23.0888 5.83618 22.4244C5.83618 21.7599 8.61399 21.2213 12.0409 21.2213C15.4675 21.2213 18.2455 21.7598 18.2455 22.4244Z" fill="#00DF81"/>
</svg>
