<svg width="74" height="89" viewBox="0 0 74 89" fill="none" xmlns="http://www.w3.org/2000/svg">
<path d="M62.5 25.7991L55.9 32.3992C66.7 43.1992 66.7 60.5992 55.9 71.1992C45.1 81.9992 27.7 81.9992 17.1 71.1992C6.3 60.3992 6.3 42.9992 17.1 32.3992L34.2 15.2991L36.6 12.8992V-0.000854492L10.8 25.7991C-3.6 40.1991 -3.6 63.3991 10.8 77.7991C25.2 92.1991 48.4 92.1991 62.5 77.7991C76.9 63.2991 76.9 40.1991 62.5 25.7991Z" fill="#00DF81"/>
<path d="M49.5998 24.1988C52.2508 24.1988 54.3998 22.0498 54.3998 19.3988C54.3998 16.7478 52.2508 14.5988 49.5998 14.5988C46.9488 14.5988 44.7998 16.7478 44.7998 19.3988C44.7998 22.0498 46.9488 24.1988 49.5998 24.1988Z" fill="#00DF81"/>
</svg>
